<svg width="37" height="48" viewBox="0 0 37 48" fill="none" xmlns="http://www.w3.org/2000/svg">
<path fill-rule="evenodd" clip-rule="evenodd" d="M6.02292 42.8652C7.55334 44.3949 9.29838 45.5366 11.2581 46.2903C13.5161 47.129 15.9247 47.5484 18.4839 47.5484C21.043 47.5484 23.4409 47.1398 25.6774 46.3226C27.9355 45.4839 29.9032 44.129 31.5806 42.2581C33.2581 40.3871 34.5806 37.9355 35.5484 34.9032C36.5161 31.871 37 28.1613 37 23.7742C37 19.4301 36.5161 15.7527 35.5484 12.7419C34.8449 10.5532 33.9538 8.65991 32.8752 7.06216L26.9451 14.9689C27.7774 17.2642 28.1935 20.1993 28.1935 23.7742C28.1935 26.3763 27.9677 28.6344 27.5161 30.5484C27.086 32.4409 26.4516 34.0108 25.6129 35.2581C24.7957 36.5054 23.7849 37.4409 22.5806 38.0645C21.3763 38.6667 20.0108 38.9677 18.4839 38.9677C15.5467 38.9677 13.2451 37.7974 11.5792 35.4568L6.02292 42.8652ZM25.4029 12.0252C23.7201 9.72884 21.4138 8.58065 18.4839 8.58065C15.4516 8.58065 13.0968 9.81721 11.4194 12.2903C9.74193 14.7634 8.90323 18.5914 8.90323 23.7742C8.90323 27.2865 9.29487 30.1811 10.0782 32.4582L4.07259 40.4656C3.02106 38.879 2.1474 37.0034 1.45161 34.8387C0.483871 31.8065 0 28.1183 0 23.7742C0 19.3871 0.483871 15.6882 1.45161 12.6774C2.41935 9.64516 3.73118 7.19355 5.3871 5.32258C7.06452 3.45161 9.02151 2.09677 11.2581 1.25806C13.5161 0.419355 15.9247 0 18.4839 0C21.043 0 23.4409 0.430108 25.6774 1.29032C27.6427 2.0203 29.3881 3.14939 30.9136 4.67761L25.4029 12.0252Z" fill="black"/>
</svg>
